<svg width="200" height="60" viewBox="0 0 200 60" fill="none" xmlns="http://www.w3.org/2000/svg">
<rect x="0.7" y="3.7" width="198.6" height="54.6" rx="27.3" stroke="#458FF6" stroke-width="1.4"/>
<path d="M78.14 24.184L72.434 37H70.544L64.838 24.184H67.25L71.516 34.084L75.782 24.184H78.14ZM79.1967 27.91H81.4287V37H79.1967V27.91ZM81.5547 23.788V26.002H79.0527V23.788H81.5547ZM91.846 32.572H85.582C85.63 33.544 85.87 34.264 86.302 34.732C86.746 35.188 87.4 35.416 88.264 35.416C89.26 35.416 90.184 35.092 91.036 34.444L91.684 35.992C91.252 36.34 90.718 36.622 90.082 36.838C89.458 37.042 88.822 37.144 88.174 37.144C86.686 37.144 85.516 36.724 84.664 35.884C83.812 35.044 83.386 33.892 83.386 32.428C83.386 31.504 83.572 30.682 83.944 29.962C84.316 29.242 84.838 28.684 85.51 28.288C86.182 27.88 86.944 27.676 87.796 27.676C89.044 27.676 90.028 28.084 90.748 28.9C91.48 29.704 91.846 30.814 91.846 32.23V32.572ZM87.85 29.296C87.25 29.296 86.758 29.476 86.374 29.836C86.002 30.184 85.762 30.694 85.654 31.366H89.884C89.812 30.682 89.602 30.166 89.254 29.818C88.918 29.47 88.45 29.296 87.85 29.296ZM108.065 27.91L104.501 37H102.539L100.289 31.042L98.0931 37H96.1131L92.5491 27.91H94.8531L97.1931 34.318L99.5511 27.91H101.171L103.529 34.372L105.869 27.91H108.065ZM123.117 27.91V37H120.903V35.542C120.627 36.046 120.231 36.442 119.715 36.73C119.199 37.006 118.611 37.144 117.951 37.144C117.159 37.144 116.457 36.952 115.845 36.568C115.233 36.184 114.759 35.638 114.423 34.93C114.087 34.222 113.919 33.4 113.919 32.464C113.919 31.528 114.087 30.7 114.423 29.98C114.771 29.248 115.251 28.684 115.863 28.288C116.475 27.88 117.171 27.676 117.951 27.676C118.611 27.676 119.199 27.82 119.715 28.108C120.231 28.384 120.627 28.774 120.903 29.278V27.91H123.117ZM118.563 35.38C119.307 35.38 119.883 35.122 120.291 34.606C120.699 34.09 120.903 33.364 120.903 32.428C120.903 31.468 120.699 30.73 120.291 30.214C119.883 29.698 119.301 29.44 118.545 29.44C117.801 29.44 117.219 29.71 116.799 30.25C116.391 30.778 116.187 31.516 116.187 32.464C116.187 33.4 116.391 34.12 116.799 34.624C117.219 35.128 117.807 35.38 118.563 35.38ZM125.568 23.752H127.8V37H125.568V23.752ZM130.261 23.752H132.493V37H130.261V23.752Z" fill="#458FF6"/>
</svg>
